<?xml version="1.0" encoding="UTF-8" standalone="no"?>
<!DOCTYPE svg PUBLIC "-//W3C//DTD SVG 1.1//EN" "http://www.w3.org/Graphics/SVG/1.1/DTD/svg11.dtd">
<svg width="100%" height="100%" viewBox="0 0 1000 777" version="1.1" xmlns="http://www.w3.org/2000/svg" xmlns:xlink="http://www.w3.org/1999/xlink" xml:space="preserve" xmlns:serif="http://www.serif.com/" style="fill-rule:evenodd;clip-rule:evenodd;stroke-linejoin:round;stroke-miterlimit:2;">
    <g transform="matrix(15.7233,0,0,15.7233,-16355.4,-10675)">
        <g transform="matrix(1.25,0,0,-1.25,1102.5,727.74)">
            <path d="M0,0L0,-0.103L0.095,-0.103C0.116,-0.103 0.134,-0.098 0.147,-0.09C0.159,-0.082 0.166,-0.068 0.166,-0.051C0.166,-0.034 0.159,-0.021 0.147,-0.013C0.134,-0.004 0.116,0 0.095,0L0,0ZM0.096,0.072C0.145,0.072 0.183,0.061 0.21,0.039C0.237,0.017 0.25,-0.013 0.25,-0.051C0.25,-0.083 0.24,-0.109 0.218,-0.13C0.197,-0.15 0.167,-0.163 0.127,-0.168L0.253,-0.313L0.155,-0.313L0.038,-0.169L0,-0.169L0,-0.313L-0.082,-0.313L-0.082,0.072L0.096,0.072ZM0.071,-0.446C0.116,-0.446 0.158,-0.437 0.196,-0.42C0.235,-0.403 0.269,-0.38 0.298,-0.351C0.327,-0.322 0.35,-0.288 0.367,-0.248C0.383,-0.209 0.392,-0.167 0.392,-0.122C0.392,-0.077 0.383,-0.035 0.367,0.004C0.35,0.043 0.327,0.078 0.298,0.107C0.269,0.136 0.235,0.159 0.196,0.176C0.158,0.192 0.116,0.2 0.071,0.2C0.026,0.2 -0.017,0.192 -0.056,0.176C-0.096,0.159 -0.131,0.136 -0.16,0.107C-0.189,0.078 -0.212,0.043 -0.228,0.004C-0.245,-0.035 -0.253,-0.077 -0.253,-0.122C-0.253,-0.167 -0.245,-0.209 -0.228,-0.248C-0.212,-0.288 -0.189,-0.322 -0.16,-0.351C-0.131,-0.38 -0.096,-0.403 -0.056,-0.42C-0.017,-0.437 0.026,-0.446 0.071,-0.446M0.071,0.293C0.13,0.293 0.184,0.282 0.236,0.26C0.287,0.239 0.331,0.209 0.37,0.171C0.408,0.134 0.438,0.09 0.46,0.039C0.482,-0.011 0.493,-0.065 0.493,-0.122C0.493,-0.179 0.482,-0.233 0.46,-0.283C0.438,-0.333 0.408,-0.377 0.37,-0.415C0.331,-0.452 0.287,-0.482 0.236,-0.504C0.184,-0.526 0.13,-0.537 0.071,-0.537C0.011,-0.537 -0.044,-0.526 -0.096,-0.504C-0.148,-0.482 -0.193,-0.452 -0.231,-0.415C-0.269,-0.377 -0.299,-0.333 -0.321,-0.283C-0.343,-0.233 -0.354,-0.179 -0.354,-0.122C-0.354,-0.065 -0.343,-0.011 -0.321,0.039C-0.299,0.09 -0.269,0.134 -0.231,0.171C-0.193,0.209 -0.148,0.239 -0.096,0.26C-0.044,0.282 0.011,0.293 0.071,0.293M-38.89,1.776C-38.89,2.51 -38.409,3.113 -37.623,3.113C-36.872,3.113 -36.365,2.536 -36.365,1.776C-36.365,1.016 -36.872,0.439 -37.623,0.439C-38.409,0.439 -38.89,1.042 -38.89,1.776M-35.509,-0.312L-35.509,3.864L-36.417,3.864L-36.417,3.357C-36.705,3.733 -37.142,3.969 -37.736,3.969C-38.907,3.969 -39.825,3.051 -39.825,1.776C-39.825,0.5 -38.907,-0.417 -37.736,-0.417C-37.142,-0.417 -36.705,-0.181 -36.417,0.195L-36.417,-0.312L-35.509,-0.312ZM-4.825,1.776C-4.825,2.51 -4.344,3.113 -3.558,3.113C-2.806,3.113 -2.3,2.536 -2.3,1.776C-2.3,1.016 -2.806,0.439 -3.558,0.439C-4.344,0.439 -4.825,1.042 -4.825,1.776M-1.443,-0.312L-1.443,5.541L-2.352,5.541L-2.352,3.357C-2.64,3.733 -3.077,3.969 -3.671,3.969C-4.842,3.969 -5.76,3.051 -5.76,1.776C-5.76,0.5 -4.842,-0.417 -3.671,-0.417C-3.077,-0.417 -2.64,-0.181 -2.352,0.195L-2.352,-0.312L-1.443,-0.312ZM-24.238,3.156C-23.653,3.156 -23.277,2.789 -23.181,2.143L-25.348,2.143C-25.251,2.746 -24.885,3.156 -24.238,3.156M-24.22,3.969C-25.444,3.969 -26.3,3.078 -26.3,1.776C-26.3,0.448 -25.409,-0.417 -24.159,-0.417C-23.53,-0.417 -22.954,-0.26 -22.447,0.168L-22.892,0.841C-23.242,0.562 -23.688,0.404 -24.107,0.404C-24.692,0.404 -25.225,0.675 -25.356,1.427L-22.255,1.427C-22.246,1.54 -22.237,1.654 -22.237,1.776C-22.246,3.078 -23.05,3.969 -24.22,3.969M-13.256,1.776C-13.256,2.51 -12.775,3.113 -11.989,3.113C-11.238,3.113 -10.731,2.536 -10.731,1.776C-10.731,1.016 -11.238,0.439 -11.989,0.439C-12.775,0.439 -13.256,1.042 -13.256,1.776M-9.875,-0.312L-9.875,3.864L-10.783,3.864L-10.783,3.357C-11.072,3.733 -11.508,3.969 -12.102,3.969C-13.273,3.969 -14.191,3.051 -14.191,1.776C-14.191,0.5 -13.273,-0.417 -12.102,-0.417C-11.508,-0.417 -11.072,-0.181 -10.783,0.195L-10.783,-0.312L-9.875,-0.312ZM-18.384,1.776C-18.384,0.509 -17.502,-0.417 -16.156,-0.417C-15.527,-0.417 -15.108,-0.277 -14.654,0.081L-15.09,0.815C-15.431,0.57 -15.789,0.439 -16.183,0.439C-16.908,0.448 -17.441,0.972 -17.441,1.776C-17.441,2.58 -16.908,3.104 -16.183,3.113C-15.789,3.113 -15.431,2.982 -15.09,2.737L-14.654,3.471C-15.108,3.829 -15.527,3.969 -16.156,3.969C-17.502,3.969 -18.384,3.043 -18.384,1.776M-6.677,3.969C-7.201,3.969 -7.542,3.724 -7.778,3.357L-7.778,3.864L-8.678,3.864L-8.678,-0.312L-7.769,-0.312L-7.769,2.029C-7.769,2.72 -7.472,3.104 -6.878,3.104C-6.694,3.104 -6.502,3.078 -6.31,2.999L-6.03,3.855C-6.231,3.934 -6.493,3.969 -6.677,3.969M-31.018,3.532C-31.455,3.82 -32.057,3.969 -32.721,3.969C-33.779,3.969 -34.46,3.462 -34.46,2.632C-34.46,1.951 -33.953,1.531 -33.019,1.4L-32.59,1.339C-32.092,1.269 -31.857,1.138 -31.857,0.902C-31.857,0.579 -32.189,0.395 -32.809,0.395C-33.438,0.395 -33.892,0.596 -34.198,0.832L-34.626,0.125C-34.128,-0.242 -33.499,-0.417 -32.818,-0.417C-31.612,-0.417 -30.913,0.151 -30.913,0.946C-30.913,1.68 -31.463,2.064 -32.372,2.195L-32.8,2.257C-33.193,2.309 -33.508,2.387 -33.508,2.667C-33.508,2.973 -33.211,3.156 -32.713,3.156C-32.18,3.156 -31.664,2.955 -31.411,2.798L-31.018,3.532ZM-19.302,3.969C-19.826,3.969 -20.167,3.724 -20.402,3.357L-20.402,3.864L-21.302,3.864L-21.302,-0.312L-20.394,-0.312L-20.394,2.029C-20.394,2.72 -20.097,3.104 -19.503,3.104C-19.319,3.104 -19.127,3.078 -18.935,2.999L-18.655,3.855C-18.856,3.934 -19.118,3.969 -19.302,3.969M-27.051,3.864L-28.536,3.864L-28.536,5.131L-29.454,5.131L-29.454,3.864L-30.301,3.864L-30.301,3.034L-29.454,3.034L-29.454,1.129C-29.454,0.16 -29.078,-0.417 -28.004,-0.417C-27.61,-0.417 -27.156,-0.295 -26.868,-0.094L-27.13,0.684C-27.401,0.527 -27.698,0.448 -27.934,0.448C-28.388,0.448 -28.536,0.728 -28.536,1.147L-28.536,3.034L-27.051,3.034L-27.051,3.864ZM-40.628,-0.312L-40.628,2.309C-40.628,3.296 -41.257,3.96 -42.271,3.969C-42.804,3.978 -43.354,3.812 -43.739,3.226C-44.027,3.689 -44.481,3.969 -45.119,3.969C-45.565,3.969 -46.001,3.838 -46.342,3.349L-46.342,3.864L-47.251,3.864L-47.251,-0.312L-46.334,-0.312L-46.334,2.003C-46.334,2.728 -45.932,3.113 -45.311,3.113C-44.708,3.113 -44.403,2.72 -44.403,2.012L-44.403,-0.312L-43.485,-0.312L-43.485,2.003C-43.485,2.728 -43.066,3.113 -42.463,3.113C-41.843,3.113 -41.546,2.72 -41.546,2.012L-41.546,-0.312L-40.628,-0.312Z" style="fill:rgb(35,31,32);fill-rule:nonzero;"/>
        </g>
        <g transform="matrix(1.25,0,0,-1.25,1103.2,710.77)">
            <path d="M0,0L0,0.61L-0.159,0.61L-0.343,0.191L-0.526,0.61L-0.686,0.61L-0.686,0L-0.573,0L-0.573,0.46L-0.401,0.063L-0.284,0.063L-0.112,0.461L-0.112,0L0,0ZM-1.009,0L-1.009,0.506L-0.805,0.506L-0.805,0.609L-1.325,0.609L-1.325,0.506L-1.121,0.506L-1.121,0L-1.009,0Z" style="fill:rgb(247,148,16);fill-rule:nonzero;"/>
        </g>
        <rect x="1063.4" y="683.135" width="17.202" height="30.915" style="fill:rgb(255,95,0);"/>
        <g transform="matrix(1.25,0,0,-1.25,1064.5,698.59)">
            <path d="M0,0C0,5.017 2.349,9.486 6.007,12.366C3.332,14.472 -0.044,15.729 -3.713,15.729C-12.399,15.729 -19.44,8.687 -19.44,0C-19.44,-8.687 -12.399,-15.729 -3.713,-15.729C-0.044,-15.729 3.332,-14.472 6.007,-12.366C2.349,-9.486 0,-5.017 0,0" style="fill:rgb(235,0,27);fill-rule:nonzero;"/>
        </g>
        <g transform="matrix(1.25,0,0,-1.25,1103.8,698.59)">
            <path d="M0,0C0,-8.687 -7.041,-15.729 -15.727,-15.729C-19.396,-15.729 -22.772,-14.472 -25.448,-12.366C-21.789,-9.486 -19.44,-5.017 -19.44,0C-19.44,5.017 -21.789,9.486 -25.448,12.366C-22.772,14.472 -19.396,15.729 -15.727,15.729C-7.041,15.729 0,8.687 0,0" style="fill:rgb(247,158,27);fill-rule:nonzero;"/>
        </g>
    </g>
</svg>
